<svg xmlns="http://www.w3.org/2000/svg" viewBox="0 0 116.52 106.14"><defs><style>.cls-1{fill:#c501e2;}.cls-2{fill:#01f8f0;}.cls-3{fill:#e5e2e8;}</style></defs><g id="Capa_2" data-name="Capa 2"><g id="Capa_1-2" data-name="Capa 1"><polygon class="cls-1" points="73.11 104.59 91.56 104.59 95.43 86.53 76.98 86.53 73.11 104.59"/><polygon class="cls-1" points="108.14 38.88 103.14 38.88 107.3 23.9 110.52 8.55 92.59 8.55 89.23 23.9 87.06 38.88 92.06 38.88 91.92 39.88 107.87 39.88 108.14 38.88"/><polygon class="cls-1" points="98.75 75.79 107.87 42.88 91.92 42.88 87.14 75.79 98.75 75.79"/><path class="cls-1" d="M72.65,38.88h-5a20.34,20.34,0,0,0,2-9.05,20.87,20.87,0,0,0-3.48-12.06,22.89,22.89,0,0,0-9.81-7.93A36.3,36.3,0,0,0,41.39,7a37.32,37.32,0,0,0-16.9,3.68A29.74,29.74,0,0,0,12.75,21,33.33,33.33,0,0,0,7.59,36.8H23.72q.51-7.48,5.09-11.8a16.52,16.52,0,0,1,11.81-4.33q5.81,0,9,2.91a9.66,9.66,0,0,1,3.22,7.54,12.42,12.42,0,0,1-2.32,7.48c-.07.1-.15.18-.22.28h5c-.27.35-.57.67-.86,1H72.11C72.29,39.55,72.48,39.22,72.65,38.88Z"/><path class="cls-1" d="M49.08,78.88a13.33,13.33,0,0,1-4.53,9.33Q40,92.34,32.1,92.33a18.24,18.24,0,0,1-8.51-1.93,13,13,0,0,1-5.74-5.93,14.85,14.85,0,0,1-1.45-5.59H0A28.33,28.33,0,0,0,2.5,90.4a25.22,25.22,0,0,0,10.57,11.48q7.29,4.26,18.13,4.26t18.58-3.61A27.77,27.77,0,0,0,61.71,92.4a26.94,26.94,0,0,0,4.14-13.52H49.08Z"/><path class="cls-1" d="M69,65.08a20,20,0,0,0-5.42-7.16,17.74,17.74,0,0,0-8-3.8,25.35,25.35,0,0,0,13.67-7.36,19.37,19.37,0,0,0,2.89-3.88H54.47a15.86,15.86,0,0,1-5.11,3.76,20,20,0,0,1-8.52,1.8h-5L33,61.86h4.65q7.35,0,11.93,3.35a11.14,11.14,0,0,1,4.58,9.55c0,.38,0,.75-.05,1.12H70.85c0-.54.05-1.08.05-1.64A21.87,21.87,0,0,0,69,65.08Z"/><polygon class="cls-2" points="79.11 97.59 97.56 97.59 101.43 79.53 82.98 79.53 79.11 97.59"/><polygon class="cls-2" points="114.14 31.88 109.14 31.88 113.3 16.9 116.52 1.55 98.59 1.55 95.23 16.9 93.06 31.88 98.06 31.88 97.92 32.88 113.87 32.88 114.14 31.88"/><polygon class="cls-2" points="104.75 68.79 113.87 35.88 97.92 35.88 93.14 68.79 104.75 68.79"/><path class="cls-2" d="M78.65,31.88h-5a20.34,20.34,0,0,0,2-9,20.87,20.87,0,0,0-3.48-12.06,22.89,22.89,0,0,0-9.81-7.93A36.3,36.3,0,0,0,47.39,0a37.32,37.32,0,0,0-16.9,3.68A29.74,29.74,0,0,0,18.75,14a33.33,33.33,0,0,0-5.16,15.8H29.72q.51-7.49,5.09-11.8a16.52,16.52,0,0,1,11.81-4.33q5.81,0,9,2.91a9.66,9.66,0,0,1,3.22,7.54,12.42,12.42,0,0,1-2.32,7.48c-.07.1-.15.18-.22.28h5c-.27.35-.57.67-.86,1H78.11C78.29,32.55,78.48,32.22,78.65,31.88Z"/><path class="cls-2" d="M55.08,71.88a13.33,13.33,0,0,1-4.53,9.33Q46,85.34,38.1,85.33a18.24,18.24,0,0,1-8.51-1.93,13,13,0,0,1-5.74-5.93,14.85,14.85,0,0,1-1.45-5.59H6A28.33,28.33,0,0,0,8.5,83.4,25.22,25.22,0,0,0,19.07,94.88q7.29,4.26,18.13,4.26t18.58-3.61A27.77,27.77,0,0,0,67.71,85.4a26.94,26.94,0,0,0,4.14-13.52H55.08Z"/><path class="cls-2" d="M75,58.08a20,20,0,0,0-5.42-7.16,17.74,17.74,0,0,0-8-3.8,25.35,25.35,0,0,0,13.67-7.36,19.37,19.37,0,0,0,2.89-3.88H60.47a15.86,15.86,0,0,1-5.11,3.76,20,20,0,0,1-8.52,1.8h-5L39,54.86h4.65q7.35,0,11.93,3.35a11.14,11.14,0,0,1,4.58,9.55c0,.38,0,.75-.05,1.12H76.85c0-.54.05-1.08.05-1.64A21.87,21.87,0,0,0,75,58.08Z"/><polygon class="cls-3" points="76.11 101.59 94.56 101.59 98.43 83.53 79.98 83.53 76.11 101.59"/><polygon class="cls-3" points="111.14 35.88 106.14 35.88 110.3 20.9 113.52 5.55 95.59 5.55 92.23 20.9 90.06 35.88 95.06 35.88 94.92 36.88 110.87 36.88 111.14 35.88"/><polygon class="cls-3" points="101.75 72.79 110.87 39.88 94.92 39.88 90.14 72.79 101.75 72.79"/><path class="cls-3" d="M75.65,35.88h-5a20.34,20.34,0,0,0,2-9.05,20.87,20.87,0,0,0-3.48-12.06,22.89,22.89,0,0,0-9.81-7.93A36.3,36.3,0,0,0,44.39,4a37.32,37.32,0,0,0-16.9,3.68A29.74,29.74,0,0,0,15.75,18a33.33,33.33,0,0,0-5.16,15.8H26.72q.51-7.48,5.09-11.8a16.52,16.52,0,0,1,11.81-4.33q5.81,0,9,2.91a9.66,9.66,0,0,1,3.22,7.54,12.42,12.42,0,0,1-2.32,7.48c-.07.1-.15.18-.22.28h5c-.27.35-.57.67-.86,1H75.11C75.29,36.55,75.48,36.22,75.65,35.88Z"/><path class="cls-3" d="M52.08,75.88a13.33,13.33,0,0,1-4.53,9.33Q43,89.34,35.1,89.33a18.24,18.24,0,0,1-8.51-1.93,13,13,0,0,1-5.74-5.93,14.85,14.85,0,0,1-1.45-5.59H3A28.33,28.33,0,0,0,5.5,87.4,25.22,25.22,0,0,0,16.07,98.88q7.29,4.26,18.13,4.26t18.58-3.61A27.77,27.77,0,0,0,64.71,89.4a26.94,26.94,0,0,0,4.14-13.52H52.08Z"/><path class="cls-3" d="M72,62.08a20,20,0,0,0-5.42-7.16,17.74,17.74,0,0,0-8-3.8,25.35,25.35,0,0,0,13.67-7.36,19.37,19.37,0,0,0,2.89-3.88H57.47a15.86,15.86,0,0,1-5.11,3.76,20,20,0,0,1-8.52,1.8h-5L36,58.86h4.65q7.35,0,11.93,3.35a11.14,11.14,0,0,1,4.58,9.55c0,.38,0,.75-.05,1.12H73.85c0-.54.05-1.08.05-1.64A21.87,21.87,0,0,0,72,62.08Z"/></g></g></svg>